<svg width="40" height="40" style='cursor: pointer;' viewBox="0 0 833 833" fill="none" xmlns="http://www.w3.org/2000/svg">
    <path fill-rule="evenodd" clip-rule="evenodd" d="M833 416.5C833 646.527 646.527 833 416.5 833C186.473 833 0 646.527 0 416.5C0 186.473 186.473 0 416.5 0C646.527 0 833 186.473 833 416.5ZM652 267H197C194.375 267 191.907 267.674 189.761 268.859C188.545 270.015 187.475 271.697 186.886 273.792C186.218 276.167 186.353 278.411 186.963 280.129C187.481 281.591 188.557 283.358 191.298 285.033L419.786 424.656C422.987 426.612 427.013 426.612 430.214 424.656L658.702 285.033C661.443 283.358 662.518 281.591 663.037 280.129C663.647 278.412 663.782 276.167 663.114 273.792C662.757 272.522 662.223 271.405 661.588 270.464C658.988 268.301 655.646 267 652 267ZM491.986 422.067L445.857 450.255C433.053 458.079 416.947 458.079 404.143 450.255L357.635 421.835L206.734 567H642.642L491.986 422.067ZM518.449 405.896L667 548.804V315.12L518.449 405.896ZM182 314.509L331.172 405.664L182 549.166V314.509ZM683.713 250.073C676.785 241.96 666.447 236.5 653.488 236.5H196.512C186.917 236.5 178.759 239.493 172.358 244.34C160.098 252.379 152 266.244 152 282V552C152 576.853 172.147 597 197 597H652C676.853 597 697 576.853 697 552V282C697 269.519 691.919 258.225 683.713 250.073Z" fill="#D4FFA3"/>
</svg>