<svg width="40" height="40" id='icone-fb' style='cursor: pointer;' viewBox="0 0 633 633" fill="none" xmlns="http://www.w3.org/2000/svg">
    <path fill-rule="evenodd" clip-rule="evenodd" d="M333.998 632.524C500.658 623.443 633 485.427 633 316.5C633 141.702 491.298 0 316.5 0C141.702 0 0 141.702 0 316.5C0 481.92 126.905 617.699 288.668 631.793C281.827 631.029 274.198 630.011 265 628.771V404H186V317.501L265 317.501V234.656C276.5 131.5 354 111.5 456.5 131.5V212L403 212.5C400 212.5 370 217 370 250V317H453L439 404H369V628.5C354.584 630.422 343.448 631.741 333.998 632.524Z" fill="#D4FFA3"/>
</svg>