<svg width="40" height="40" style='cursor: pointer;' viewBox="0 0 513 513" fill="none" xmlns="http://www.w3.org/2000/svg">
    <path fill-rule="evenodd" clip-rule="evenodd" d="M256.5 513C398.161 513 513 398.161 513 256.5C513 114.839 398.161 0 256.5 0C114.839 0 0 114.839 0 256.5C0 398.161 114.839 513 256.5 513ZM184.501 498.999C186.501 497.999 191.501 494.999 192.001 490.499V439.5C166.501 442.5 165.501 442.5 142.501 439.5C125.001 435 111.001 427 102.001 399C101.84 398.5 90.5012 378 78.0012 371.5C73.999 369.419 54.499 352 85.4996 357C106.08 363.525 113.18 374.208 120.017 384.496C126.8 394.702 133.325 404.52 152.499 409.5C153.999 410.5 173.499 412.5 192.999 403.5C193.528 401.702 193.877 399.838 194.247 397.869C195.624 390.525 197.276 381.722 209.498 369.5C100.772 359.17 94.9897 283.88 93.126 259.612C92.915 256.865 92.7543 254.771 92.5 253.5C91 221.998 98 197 119 175C108.5 148.5 116.5 113.5 122 106.5C136.5 101.5 168.5 118 192.5 132.5C249.5 117 300.5 127 319.5 132.5C336.833 121.333 375.1 100.5 389.5 106.5C404 135.5 397.5 167 393 174C441 225.5 412.5 311.5 393 330C372.5 352.5 340.5 366 302.5 369C315.3 381.8 317.86 397.48 318.884 403.752C319.14 405.32 319.3 406.3 319.5 406.5V489.5C321 494.5 323.5 500.5 336 499.5C301.5 512.5 235.5 520.5 177 499.5C179.8 499.5 183.5 499.5 184.501 498.999Z" fill="#D4FFA3"/>
</svg>